<?xml version="1.0" standalone="no"?><!DOCTYPE svg PUBLIC "-//W3C//DTD SVG 1.1//EN" "http://www.w3.org/Graphics/SVG/1.1/DTD/svg11.dtd"><svg t="1482819314310" class="icon" style="" viewBox="0 0 1024 1024" version="1.1" xmlns="http://www.w3.org/2000/svg" p-id="5499" xmlns:xlink="http://www.w3.org/1999/xlink" width="200" height="200"><defs><style type="text/css"></style></defs><path d="M0 1024l512 0L512 0 0 0 0 1024 0 1024zM315.968 126.592l128 0 0 128-128 0L315.968 126.592 315.968 126.592zM315.968 384l128 0 0 128-128 0L315.968 384 315.968 384zM315.968 638.592l128 0 0 128-128 0L315.968 638.592 315.968 638.592zM64 126.592l128 0 0 128L64 254.592 64 126.592 64 126.592zM64 384l128 0 0 128L64 512 64 384 64 384zM64 638.592l128 0 0 128L64 766.592 64 638.592 64 638.592zM576 324.224l448 0 0 58.624L576 382.848 576 324.224 576 324.224zM576 1024l128 0 0-223.936 192 0L896 1024l128 0L1024 453.376 576 453.376 576 1024z" p-id="5500" fill="#ffffff"></path></svg>