<?xml version="1.0" standalone="no"?><!DOCTYPE svg PUBLIC "-//W3C//DTD SVG 1.1//EN" "http://www.w3.org/Graphics/SVG/1.1/DTD/svg11.dtd"><svg t="1482819455013" class="icon" style="" viewBox="0 0 1024 1024" version="1.1" xmlns="http://www.w3.org/2000/svg" p-id="6250" xmlns:xlink="http://www.w3.org/1999/xlink" width="200" height="200"><defs><style type="text/css"></style></defs><path d="M531.2512 170.666667c-103.7312 0-187.733333 84.036267-187.733333 187.733333s84.036267 187.733333 187.733333 187.733333c103.662933 0 187.733333-84.036267 187.733333-187.733333S634.948267 170.666667 531.2512 170.666667zM531.2512 477.866667c-66.013867 0-119.466667-53.486933-119.466667-119.466667s53.486933-119.466667 119.466667-119.466667c65.979733 0 119.466667 53.486933 119.466667 119.466667S597.230933 477.866667 531.2512 477.866667zM531.2512 34.133333c-197.9392 0-358.4 154.043733-358.4 344.064 0 190.020267 358.4 611.669333 358.4 611.669333s358.4-421.649067 358.4-611.669333C889.6512 188.2112 729.1904 34.133333 531.2512 34.133333zM241.117867 385.024c0-156.091733 129.911467-282.624 290.133333-282.624 160.187733 0 290.133333 126.532267 290.133333 282.624S531.2512 887.466667 531.2512 887.466667 241.117867 541.115733 241.117867 385.024z" p-id="6251" fill="#ffffff"></path></svg>