<?xml version="1.0" standalone="no"?><!DOCTYPE svg PUBLIC "-//W3C//DTD SVG 1.1//EN" "http://www.w3.org/Graphics/SVG/1.1/DTD/svg11.dtd"><svg t="1482819629405" class="icon" style="" viewBox="0 0 1024 1024" version="1.1" xmlns="http://www.w3.org/2000/svg" p-id="6973" xmlns:xlink="http://www.w3.org/1999/xlink" width="200" height="200"><defs><style type="text/css"></style></defs><path d="M664.18354 960.14774 664.18354 960.14774 308.632731 960.14774c-21.414729 0-41.779545-3.595898-60.473303-10.794857-18.954701-7.28594-35.809577-17.815761-50.025347-31.332612-14.308891-13.606903-25.632797-30.015617-33.616632-48.799426-7.987928-18.694781-12.024871-39.84652-12.024871-62.754253L152.492578 546.847669c0-11.935843 0.435928-24.050766 1.315972-36.071543 1.054005-13.606903 3.685949-26.682709 7.81192-38.797631 4.563946-13.250792 11.583826-25.451672 20.977777-36.423561 9.826809-11.407817 22.816658-20.62576 38.618553-27.384697 0.174985-0.084934 0.435928-0.170892 0.611937-0.260943 9.655917-3.952009 21.152762-10.006911 34.142611-18.081821 13.427824-8.42488 27.736715-18.693758 42.393529-30.366611 14.480806-11.583826 28.785603-24.839735 42.568515-39.405475 13.68672-14.395872 26.155706-29.844725 37.126572-45.817512 10.529821-15.272845 19.044752-31.42164 25.276686-47.921429 5.792936-15.359826 8.776897-31.154557 8.776897-46.866401l0-0.968048c0.703011-20.009729 3.423983-36.599569 8.334829-50.729381 5.180999-14.921851 12.467963-27.469632 21.505803-37.301558 9.302877-10.092869 19.837814-17.643845 31.245631-22.293749 10.970866-4.477988 22.379707-6.757914 33.967626-6.757914 27.381627 0 50.996464 8.691963 70.127174 25.89374 18.694781 16.759709 31.070646 41.775452 38.095643 76.445066 0.260943 1.401929 0.436952 2.807952 0.522909 4.212952 1.230014 25.979698-0.261966 53.800323-4.473895 82.58695-3.601015 24.488741-9.91686 51.611471-18.784832 80.573083-4.738931 15.359826-10.703783 30.718629-17.989723 45.992497l198.181665 0c25.803689 0 48.358381 8.600889 66.87613 25.626657 19.049868 17.377786 29.052686 40.284495 29.052686 66.087161l0 0c0 12.989849-2.720971 25.542746-7.984858 37.391608-5.006014 11.057847-11.586896 21.064758-19.747763 29.574572-4.301979 4.477988-9.041934 8.514931-14.219863 12.025894 11.32186 15.359826 17.288758 33.530674 17.288758 53.364395 0 25.450648-9.827833 48.533366-28.349675 66.705238-4.386914 4.297886-8.951883 8.073886-13.776771 11.32186 11.497868 15.796778 17.552771 34.313503 17.552771 54.237275 0 14.308891-3.950985 27.996634-11.849886 40.726563-7.194866 11.497868-16.84976 21.50478-28.875654 29.6636-2.545986 1.75804-5.266957 3.423983-7.984858 5.006014 12.110829 16.851806 18.251689 36.247552 18.251689 57.83829 0 17.729803-5.351891 33.440623-15.795754 46.691415-8.862855 11.146874-20.009729 20.450774-33.175587 27.560706-12.114922 6.582929-25.279756 11.497868-39.058574 14.570857C687.620321 958.570825 675.244456 960.14774 664.18354 960.14774L664.18354 960.14774zM243.06848 459.867666c-7.722892 3.333932-13.778818 7.460925-17.906835 12.375865-4.734838 5.528923-8.159844 11.408841-10.443863 17.905812-2.631944 7.546883-4.298909 15.971763-4.915963 24.838711-0.787946 10.530844-1.225921 21.239743-1.225921 31.859615l0 259.618922c0 15.359826 2.544963 29.052686 7.546883 40.72247 5.001921 11.848862 11.759835 21.680788 20.712741 30.105668 8.952906 8.514931 19.219737 14.922874 31.422663 19.572778 12.285814 4.652973 25.892717 7.023974 40.458457 7.023974l355.555925 0 0 0c6.933923 0 15.093766-1.055029 24.39869-3.164063 8.775874-1.928932 17.025769-5.091972 24.577768-9.127891 6.582929-3.595898 11.848862-7.898901 15.971763-13.164834 1.757017-2.194992 3.685949-5.438872 3.685949-11.845793 0-11.32186-3.334955-20.449751-10.443863-28.613688-6.231935-7.109931-13.69286-10.357905-24.221658-10.357905-15.535835 0-28.087709-12.549827-28.087709-28.083615 0-15.535835 12.552897-28.086685 28.087709-28.086685 9.127891 0 18.080797-1.315972 26.681686-3.947915 8.509814-2.544963 16.056698-6.060019 22.464641-10.357905 5.531993-3.774977 9.654894-7.897877 12.641925-12.812817 2.368954-3.776 3.419889-7.28594 3.419889-11.06194 0-10.443863-3.686972-18.953677-11.497868-26.590612-7.984858-7.813966-17.287735-11.497868-29.137621-11.497868-15.535835 0-28.087709-12.55392-28.087709-28.087709 0-15.531741 12.552897-28.082592 28.087709-28.082592l25.450648 0c11.322883 0 20.274766-3.685949 28.263717-11.497868 7.812943-7.636934 11.497868-16.147772 11.497868-26.592658 0-10.357905-3.423983-18.170848-11.06194-25.279756-8.073886-7.546883-17.202801-11.056823-28.785603-11.056823-15.535835 0-28.086685-12.552897-28.086685-28.087709s12.551874-28.084639 28.086685-28.084639L772.753257 508.408195c5.176906 0 10.181897-1.055029 15.09786-3.162016 5.091972-2.194992 9.128915-5.001921 12.462846-8.510838 3.774977-3.952009 6.757914-8.425903 9.128915-13.69286 2.01796-4.563946 3.072989-9.3039 3.072989-14.395872 0-10.17678-3.339048-17.813714-10.796904-24.662703-8.077979-7.456832-17.290805-10.880815-28.965705-10.880815L526.648117 433.103092c-10.268878 0-19.748786-5.618974-24.663726-14.656815-4.916986-9.042957-4.475941-20.013823 1.054005-28.699646 16.060791-24.838711 28.086685-50.205449 35.8106-75.306126 8.074909-26.244734 13.69286-50.556443 16.851806-72.233138 3.601015-24.40176 4.91494-47.836495 4.036943-69.688175-4.38896-20.715811-11.322883-35.809577-20.100804-43.621497-8.68787-7.813966-19.045775-11.498892-32.562627-11.498892-4.298909 0-8.42488 0.87902-12.723789 2.636037-3.776 1.49198-7.461949 4.297886-11.147898 8.249895-3.860934 4.212952-7.198959 10.177803-9.830903 17.814738-2.982938 8.514931-4.738931 19.837814-5.175883 33.616632-0.090051 22.379707-4.212952 44.672432-12.467963 66.262146-7.807826 20.716834-18.426675 40.816614-31.592532 59.861366-12.641925 18.34174-26.947745 36.071543-42.568515 52.571333-15.534811 16.414855-31.773657 31.42164-48.272423 44.676525-16.237823 13.251815-32.210609 24.749684-47.483454 34.314527C269.925151 447.319885 255.971347 454.689736 243.06848 459.867666L243.06848 459.867666zM243.06848 459.867666" p-id="6974" fill="#ffffff"></path></svg>