<?xml version="1.0" standalone="no"?><!DOCTYPE svg PUBLIC "-//W3C//DTD SVG 1.1//EN" "http://www.w3.org/Graphics/SVG/1.1/DTD/svg11.dtd"><svg t="1482819847850" class="icon" style="" viewBox="0 0 1000 1000" version="1.1" xmlns="http://www.w3.org/2000/svg" p-id="7687" xmlns:xlink="http://www.w3.org/1999/xlink" width="200" height="200"><defs><style type="text/css"></style></defs><path d="M552.6889 194.3992l10.3644 70.1374 2.2456 15.1997 14.5797 4.8527c12.3861 4.1222 23.3361 8.7531 33.4777 14.1584l14.2839 7.6138 12.7869-9.9253 52.9063-41.0652c0.2888 0.2738 0.5796 0.5496 0.8704 0.8254 18.0245 17.0714 40.1114 37.9902 54.5383 57.1822-5.2067 7.1142-10.5613 14.1404-16.1727 21.5034-7.9959 10.4929-16.2636 21.3425-24.1756 32.6149l-8.6765 12.3616 6.9136 13.4269c6.5258 12.6764 11.6566 25.2949 15.2483 37.5066l4.4612 15.1677 15.6181 2.4613 66.8804 10.5409v79.21729067692104l-67.2532 10.4849-15.0354 2.3444-4.8149 14.4342c-4.8449 14.5202-9.3181 25.3238-14.5088 35.0293l-7.0905 13.262 8.3987 12.4725c13.6373 20.2513 28.283 38.8936 41.5885 55.5953-5.8503 7.1212-16.5205 19.3009-28.0981 31.4127-13.6383 14.2673-23.0773 22.7556-28.7257 27.2545l-51.6831-41.6677-12.8558-10.366-14.5747 7.7667c-10.8301 5.7701-22.5506 10.8167-33.8964 14.5931l-15.1693 5.0496-1.7699 15.8882c-0.3528 3.1679-0.6996 6.3607-1.0483 9.5725-2.1776 20.0364-4.4202 40.6824-8.7095 59.6845h-75.97360481373366l-10.3644-70.1414-2.2456-15.1987-14.5777-4.8527c-12.3651-4.1162-23.3191-8.7501-33.4887-14.1644l-14.3339-7.6318-12.7948 10.0012-52.4816 41.0242c-18.7091-17.4302-41.1528-38.4919-55.8964-57.8438 5.2587-7.1901 10.6652-14.2873 16.3336-21.7253 7.9819-10.4759 16.2357-21.3096 24.1386-32.5619l8.6875-12.3696-6.9266-13.4349c-6.5828-12.7703-11.6955-25.4657-15.1963-37.7344l-4.4032-15.4315-15.8659-2.4124-66.7295-10.1461v-79.21729067692104l67.2312-10.4339 15.5271-2.4104 4.5531-15.0388c3.5138-11.6061 8.2388-23.0724 14.4468-35.0572l6.8896-13.301-8.4866-12.3436c-13.7532-20.0044-28.3709-38.9206-41.3327-55.2455 5.6724-6.9853 16.0858-18.9112 27.9622-31.3058 13.4215-14.0075 22.7875-22.4168 28.4639-26.9357l52.0488 41.5708 12.8448 10.259 14.5048-7.7358c10.7691-5.7441 22.4867-10.7847 33.8874-14.5791l15.1693-5.0496 1.7699-15.8882c0.3528-3.1669 0.6996-6.3587 1.0483-9.5695 2.1766-20.0384 4.4192-40.6844 8.7075-59.6825H552.6889371470374M515.1628 599.8323c56.3741 0 102.2389-45.8749 102.2389-102.2627s-45.8648-102.2627-102.2389-102.2627c-56.3681 0-102.2269 45.8749-102.2269 102.2627S458.7947 599.8323 515.1628 599.8323M561.2085 169.4161h-92.10932635910926c-7.4702 0-13.2795 5.1255-14.9395 11.9639-6.6398 25.6476-9.1302 53.4378-12.0343 79.5051-12.8638 4.2821-25.7296 9.8273-37.754 16.24l-57.2595-45.732c-3.3189-2.5613-7.0555-4.2771-10.7901-4.2771-14.109 0-70.1233 62.4117-80.083 76.5111-2.0747 2.999-3.7346 5.9889-3.7346 9.8363s1.6599 7.2711 4.1494 10.261c15.3542 19.23 30.2857 38.4699 44.3947 58.992-6.6398 12.8173-12.0343 25.6336-16.1747 39.3083l-77.1788 11.9779c-6.225 1.2831-11.2039 8.9779-11.2039 15.3916v94.89666006447628c0 7.2631 4.9798 14.0904 12.0343 15.3726l75.9246 11.5452c4.1494 14.5421 9.9597 28.6416 17.0142 42.3253-14.109 20.0884-29.4552 38.8946-43.5633 58.5483-2.0767 2.999-3.3199 5.9889-3.3199 9.8373 0 3.4247 0.8295 6.8384 2.9042 9.8373 17.4289 24.7852 46.4694 51.2862 68.4644 71.8073 2.9051 2.989 6.6408 4.6968 10.3744 4.6968 3.7346 0 7.4702-1.2831 10.3754-3.8484l58.5037-45.731c12.0263 6.4027 24.4754 11.5332 37.3382 15.8153l11.6206 78.6457c0.8305 7.2711 7.4702 12.8273 14.9395 12.8273h92.10832699570373c7.4692 0 13.2785-5.1405 14.9385-11.9679 6.6408-25.6536 9.1302-53.4378 12.0343-79.5061 12.8648-4.2821 25.7196-9.8373 37.754-16.25l57.2595 46.1647c3.3199 2.1415 7.0555 3.8484 10.7901 3.8484 14.109 0 70.1233-62.8294 80.084-76.5051 2.4884-2.999 3.7356-5.9889 3.7356-9.8373s-1.6619-7.6948-4.1514-10.6858c-15.3532-19.24-30.2937-38.0442-44.3937-58.982 6.6308-12.4006 11.6096-25.2169 16.1757-38.9036l76.7671-11.9689c6.6408-1.2821 11.6206-8.9779 11.6206-15.3916v-94.88466819496381c0-7.2711-4.9798-14.1094-12.0343-15.3916l-75.9396-11.9689c-4.1494-14.1084-9.9587-28.2079-17.0052-41.8926 14.1-20.0894 29.4562-38.8946 43.5652-58.5493 2.0737-2.999 3.3199-5.9889 3.3199-9.8363 0-3.4237-0.8305-6.8374-2.9042-9.4026-17.4289-25.2189-46.4704-51.7209-68.4644-72.6677-2.9051-2.5613-6.6408-4.2771-10.3744-4.2771-3.7346 0-7.4712 1.2881-9.9597 3.8524l-58.9195 45.733c-12.0333-6.4137-24.4734-11.5342-37.3382-15.8163l-11.6216-78.6467C575.3165 174.9714 568.6778 169.4161 561.2085 169.4161L561.2085 169.4161zM515.1628 574.8493c-42.5439 0-77.2428-34.7265-77.2428-77.2796 0-42.5731 34.6989-77.2796 77.2428-77.2796 42.5569 0 77.2548 34.7065 77.2548 77.2796C592.4166 540.1228 557.7187 574.8493 515.1628 574.8493L515.1628 574.8493z" p-id="7688" fill="#ffffff"></path></svg>